<?xml version="1.0" standalone="no"?>
<svg xmlns:xlink="http://www.w3.org/1999/xlink" id="wave" style="transform:rotate(180deg); transition: 0.3s" viewBox="0 0 1440 490" version="1.1" xmlns="http://www.w3.org/2000/svg"><defs><linearGradient id="sw-gradient-0" x1="0" x2="0" y1="1" y2="0"><stop stop-color="rgba(10.969, 26.136, 175.633, 1)" offset="0%"/><stop stop-color="rgba(26, 101, 242, 1)" offset="100%"/></linearGradient></defs><path style="transform:translate(0, 0px); opacity:1" fill="url(#sw-gradient-0)" d="M0,49L120,98C240,147,480,245,720,245C960,245,1200,147,1440,98C1680,49,1920,49,2160,65.3C2400,82,2640,114,2880,147C3120,180,3360,212,3600,253.2C3840,294,4080,343,4320,351.2C4560,359,4800,327,5040,334.8C5280,343,5520,392,5760,383.8C6000,376,6240,310,6480,294C6720,278,6960,310,7200,269.5C7440,229,7680,114,7920,98C8160,82,8400,163,8640,236.8C8880,310,9120,376,9360,351.2C9600,327,9840,212,10080,204.2C10320,196,10560,294,10800,285.8C11040,278,11280,163,11520,98C11760,33,12000,16,12240,73.5C12480,131,12720,261,12960,294C13200,327,13440,261,13680,236.8C13920,212,14160,229,14400,220.5C14640,212,14880,180,15120,179.7C15360,180,15600,212,15840,196C16080,180,16320,114,16560,98C16800,82,17040,114,17160,130.7L17280,147L17280,490L17160,490C17040,490,16800,490,16560,490C16320,490,16080,490,15840,490C15600,490,15360,490,15120,490C14880,490,14640,490,14400,490C14160,490,13920,490,13680,490C13440,490,13200,490,12960,490C12720,490,12480,490,12240,490C12000,490,11760,490,11520,490C11280,490,11040,490,10800,490C10560,490,10320,490,10080,490C9840,490,9600,490,9360,490C9120,490,8880,490,8640,490C8400,490,8160,490,7920,490C7680,490,7440,490,7200,490C6960,490,6720,490,6480,490C6240,490,6000,490,5760,490C5520,490,5280,490,5040,490C4800,490,4560,490,4320,490C4080,490,3840,490,3600,490C3360,490,3120,490,2880,490C2640,490,2400,490,2160,490C1920,490,1680,490,1440,490C1200,490,960,490,720,490C480,490,240,490,120,490L0,490Z"/></svg>