<?xml version="1.0" standalone="no"?>
<svg xmlns:xlink="http://www.w3.org/1999/xlink" id="wave" style="transform:rotate(180deg); transition: 0.3s" viewBox="0 0 1440 490" version="1.1" xmlns="http://www.w3.org/2000/svg"><defs><linearGradient id="sw-gradient-0" x1="0" x2="0" y1="1" y2="0"><stop stop-color="rgba(1, 172, 230, 1)" offset="0%"/><stop stop-color="rgba(175.729, 234.923, 255, 1)" offset="100%"/></linearGradient></defs><path style="transform:translate(0, 0px); opacity:1" fill="url(#sw-gradient-0)" d="M0,49L120,89.8C240,131,480,212,720,236.8C960,261,1200,229,1440,196C1680,163,1920,131,2160,155.2C2400,180,2640,261,2880,277.7C3120,294,3360,245,3600,187.8C3840,131,4080,65,4320,89.8C4560,114,4800,229,5040,277.7C5280,327,5520,310,5760,294C6000,278,6240,261,6480,285.8C6720,310,6960,376,7200,343C7440,310,7680,180,7920,122.5C8160,65,8400,82,8640,130.7C8880,180,9120,261,9360,253.2C9600,245,9840,147,10080,106.2C10320,65,10560,82,10800,114.3C11040,147,11280,196,11520,187.8C11760,180,12000,114,12240,106.2C12480,98,12720,147,12960,212.3C13200,278,13440,359,13680,334.8C13920,310,14160,180,14400,122.5C14640,65,14880,82,15120,138.8C15360,196,15600,294,15840,351.2C16080,408,16320,425,16560,367.5C16800,310,17040,180,17160,114.3L17280,49L17280,490L17160,490C17040,490,16800,490,16560,490C16320,490,16080,490,15840,490C15600,490,15360,490,15120,490C14880,490,14640,490,14400,490C14160,490,13920,490,13680,490C13440,490,13200,490,12960,490C12720,490,12480,490,12240,490C12000,490,11760,490,11520,490C11280,490,11040,490,10800,490C10560,490,10320,490,10080,490C9840,490,9600,490,9360,490C9120,490,8880,490,8640,490C8400,490,8160,490,7920,490C7680,490,7440,490,7200,490C6960,490,6720,490,6480,490C6240,490,6000,490,5760,490C5520,490,5280,490,5040,490C4800,490,4560,490,4320,490C4080,490,3840,490,3600,490C3360,490,3120,490,2880,490C2640,490,2400,490,2160,490C1920,490,1680,490,1440,490C1200,490,960,490,720,490C480,490,240,490,120,490L0,490Z"/></svg>