<?xml version="1.0" standalone="no"?>
<svg xmlns:xlink="http://www.w3.org/1999/xlink" id="wave" style="transform:rotate(180deg); transition: 0.3s" viewBox="0 0 1440 490" version="1.1" xmlns="http://www.w3.org/2000/svg"><defs><linearGradient id="sw-gradient-0" x1="0" x2="0" y1="1" y2="0"><stop stop-color="rgba(10.969, 26.136, 175.633, 1)" offset="0%"/><stop stop-color="rgba(26, 101, 242, 1)" offset="100%"/></linearGradient></defs><path style="transform:translate(0, 0px); opacity:1" fill="url(#sw-gradient-0)" d="M0,147L120,155.2C240,163,480,180,720,163.3C960,147,1200,98,1440,122.5C1680,147,1920,245,2160,310.3C2400,376,2640,408,2880,400.2C3120,392,3360,343,3600,269.5C3840,196,4080,98,4320,98C4560,98,4800,196,5040,236.8C5280,278,5520,261,5760,236.8C6000,212,6240,180,6480,187.8C6720,196,6960,245,7200,294C7440,343,7680,392,7920,367.5C8160,343,8400,245,8640,204.2C8880,163,9120,180,9360,163.3C9600,147,9840,98,10080,81.7C10320,65,10560,82,10800,122.5C11040,163,11280,229,11520,285.8C11760,343,12000,392,12240,359.3C12480,327,12720,212,12960,196C13200,180,13440,261,13680,269.5C13920,278,14160,212,14400,155.2C14640,98,14880,49,15120,73.5C15360,98,15600,196,15840,204.2C16080,212,16320,131,16560,106.2C16800,82,17040,114,17160,130.7L17280,147L17280,490L17160,490C17040,490,16800,490,16560,490C16320,490,16080,490,15840,490C15600,490,15360,490,15120,490C14880,490,14640,490,14400,490C14160,490,13920,490,13680,490C13440,490,13200,490,12960,490C12720,490,12480,490,12240,490C12000,490,11760,490,11520,490C11280,490,11040,490,10800,490C10560,490,10320,490,10080,490C9840,490,9600,490,9360,490C9120,490,8880,490,8640,490C8400,490,8160,490,7920,490C7680,490,7440,490,7200,490C6960,490,6720,490,6480,490C6240,490,6000,490,5760,490C5520,490,5280,490,5040,490C4800,490,4560,490,4320,490C4080,490,3840,490,3600,490C3360,490,3120,490,2880,490C2640,490,2400,490,2160,490C1920,490,1680,490,1440,490C1200,490,960,490,720,490C480,490,240,490,120,490L0,490Z"/></svg>